<?xml version="1.0" encoding="utf-8"?>
<!-- Generator: Adobe Illustrator 25.2.3, SVG Export Plug-In . SVG Version: 6.00 Build 0)  -->
<svg version="1.1" id="Warstwa_1" xmlns="http://www.w3.org/2000/svg" xmlns:xlink="http://www.w3.org/1999/xlink" x="0px" y="0px"
	 viewBox="0 0 373.43 411.16" style="enable-background:new 0 0 373.43 411.16;" xml:space="preserve">
<style type="text/css">
	.st0{fill:none;stroke:#FFFFFF;stroke-miterlimit:10;}
</style>
<path class="st0" d="M199.96,411.16"/>
<path class="st0" d="M156.19,384.22c0,0,12.12,0.18,17.36,0c5.24-0.18,10.85-5.97,10.85-5.97V271.01V107.6"/>
<path class="st0" d="M156.19,377.89c27.67,0.36,25.5-34.72,25.5-34.72v-72.16l0.04-163.41"/>
<polyline class="st0" points="140.28,368.66 140.28,271.01 140.28,107.6 "/>
<path class="st0" d="M173.16,411.16"/>
<path class="st0" d="M216.93,384.22c0,0-12.12,0.18-17.36,0c-5.24-0.18-10.85-5.97-10.85-5.97V271.01V107.6"/>
<path class="st0" d="M216.93,377.89c-27.67,0.36-25.5-34.72-25.5-34.72v-72.16l-0.04-163.41"/>
<polyline class="st0" points="232.84,368.66 232.84,271.01 231.57,107.6 "/>
<ellipse class="st0" cx="186.71" cy="54.05" rx="186.21" ry="53.55"/>
<polyline class="st0" points="371.93,59.05 286.68,261.19 286.68,312.16 245.57,373.66 "/>
<polyline class="st0" points="1.5,58.95 86.75,261.08 86.75,312.05 127.86,373.56 "/>
</svg>
